<?xml version="1.0" encoding="UTF-8" standalone="no"?>
<svg
   xmlns:dc="http://purl.org/dc/elements/1.1/"
   xmlns:cc="http://creativecommons.org/ns#"
   xmlns:rdf="http://www.w3.org/1999/02/22-rdf-syntax-ns#"
   xmlns:svg="http://www.w3.org/2000/svg"
   xmlns="http://www.w3.org/2000/svg"
   xmlns:sodipodi="http://sodipodi.sourceforge.net/DTD/sodipodi-0.dtd"
   xmlns:inkscape="http://www.inkscape.org/namespaces/inkscape"
   version="1.1"
   x="0px"
   y="0px"
   viewBox="0 0 16 20"
   enable-background="new 0 0 16 16"
   xml:space="preserve"
   id="svg2"
   inkscape:version="0.48.4 r9939"
   width="100%"
   height="100%"
   sodipodi:docname="back_np.svg"><metadata
     id="metadata16"><rdf:RDF><cc:Work
         rdf:about=""><dc:format>image/svg+xml</dc:format><dc:type
           rdf:resource="http://purl.org/dc/dcmitype/StillImage" /><dc:title></dc:title></cc:Work></rdf:RDF></metadata><defs
     id="defs14" /><sodipodi:namedview
     pagecolor="#ffffff"
     bordercolor="#666666"
     borderopacity="1"
     objecttolerance="10"
     gridtolerance="10"
     guidetolerance="10"
     inkscape:pageopacity="0"
     inkscape:pageshadow="2"
     inkscape:window-width="771"
     inkscape:window-height="480"
     id="namedview12"
     showgrid="false"
     inkscape:zoom="11.8"
     inkscape:cx="8"
     inkscape:cy="10"
     inkscape:window-x="0"
     inkscape:window-y="34"
     inkscape:window-maximized="0"
     inkscape:current-layer="svg2" /><path
     d="M-2.898-9.82c4.439,0,6.369,3.854,7.022,5.306C4.22-4.295,4.262-4.281,4.262-4.281c0.071-0.001,0.063-0.107,0.056-0.285  c-0.3-8.147-7.182-8.206-7.182-8.206l0.451-2.48c0,0,0.025-0.061,0-0.085c-0.028-0.028-0.088,0.003-0.088,0.003l-8.126,3.936  c0,0-0.134,0.022-0.134,0.179c0,0.101,0.083,0.138,0.083,0.138l7.918,3.854c0,0,0.126,0.054,0.159,0.041  c0.063-0.024,0.022-0.136,0.022-0.136L-2.898-9.82z"
     id="path4" /><path
     d="M15.537,13.248c-0.3-8.147-7.183-8.205-7.183-8.205l0.451-2.48c0,0,0.025-0.061,0-0.085C8.777,2.45,8.718,2.481,8.718,2.481  L0.592,6.417c0,0-0.134,0.022-0.134,0.179c0,0.101,0.084,0.138,0.084,0.138l7.918,3.854c0,0,0.126,0.055,0.159,0.041  c0.063-0.023,0.022-0.135,0.022-0.135l-0.32-2.499c4.439,0,6.369,3.854,7.022,5.306c0.096,0.219,0.138,0.232,0.138,0.232  C15.553,13.533,15.544,13.426,15.537,13.248z M7.063,9.234C7.042,9.242,6.965,9.209,6.965,9.209L2.139,6.86  c0,0-0.051-0.023-0.051-0.084c0-0.096,0.081-0.109,0.081-0.109l4.953,1.21l0.054,0.05C7.176,7.927,7.101,9.219,7.063,9.234z"
     id="path6"
     style="fill:#1b1b1b;fill-opacity:1"
     inkscape:export-filename="/home/juan/Desktop/unstuckme/art/PNG/ic_back.png"
     inkscape:export-xdpi="763.74255"
     inkscape:export-ydpi="763.74255" /><text
     x="0"
     y="31"
     fill="#000000"
     font-size="5px"
     font-weight="bold"
     font-family="'Helvetica Neue', Helvetica, Arial-Unicode, Arial, Sans-serif"
     id="text8">Created by Adrien Griveau</text>
<text
     x="0"
     y="36"
     fill="#000000"
     font-size="5px"
     font-weight="bold"
     font-family="'Helvetica Neue', Helvetica, Arial-Unicode, Arial, Sans-serif"
     id="text10">from the Noun Project</text>
</svg>