<svg xmlns="http://www.w3.org/2000/svg" xmlns:xlink="http://www.w3.org/1999/xlink" version="1.1" x="0px" y="0px" viewBox="0 0 100 125" enable-background="new 0 0 100 100" xml:space="preserve"><path fill="#000000" d="M77,4H4v81h16.251L83.72,95.523L97.262,15.63L77,12.609V4z M77,24.407l6.418,1.088L77,63.36V24.407z M8,8h65  v73H8V8z M92.636,18.984L80.441,90.925L44.706,85H77V74.106l2.173,0.368l8.858-52.255L77,20.351v-3.697L92.636,18.984z"/><path fill="#000000" d="M12,67h57V12H12V67z M16,63v-4.306c2.478-4.67,7.132-11.153,9.908-11.153c1.83,0,2.701,0.78,4.027,1.962  c1.669,1.487,3.735,3.338,7.904,3.338c4.043,0,6.755-3.142,9.398-6.181c2.451-2.818,4.724-5.479,7.76-5.479  c3.257,0,5.666,6.024,7.485,10.423c0.836,2.023,1.666,3.775,2.519,5.07V63H16z M65,16v30.91c-2.185-4.906-5.048-9.729-9.92-9.729  c-4.858,0-8.025,3.642-10.82,6.854c-2.149,2.471-4.18,4.806-6.4,4.806c-2.645,0-3.796-1.025-5.253-2.324  c-1.488-1.326-3.34-2.976-6.693-2.976c-3.662,0-7.281,3.845-9.913,7.535V16H65z"/><path fill="#000000" d="M28,36c4.411,0,8-3.589,8-8s-3.589-8-8-8s-8,3.589-8,8S23.589,36,28,36z M28,24c2.206,0,4,1.794,4,4  s-1.794,4-4,4s-4-1.794-4-4S25.794,24,28,24z"/><text x="0" y="115" fill="#000000" font-size="5px" font-weight="bold" font-family="'Helvetica Neue', Helvetica, Arial-Unicode, Arial, Sans-serif">Created by Austin Condiff</text><text x="0" y="120" fill="#000000" font-size="5px" font-weight="bold" font-family="'Helvetica Neue', Helvetica, Arial-Unicode, Arial, Sans-serif">from the Noun Project</text></svg>