<svg xmlns="http://www.w3.org/2000/svg" xmlns:xlink="http://www.w3.org/1999/xlink" version="1.1" x="0px" y="0px" viewBox="0 0 100 125" enable-background="new 0 0 100 100" xml:space="preserve"><path fill="#000000" d="M35.651,66.642c0.512,0,1.024-0.195,1.414-0.585L50.5,52.621l13.435,13.436  c0.39,0.39,0.902,0.585,1.414,0.585s1.024-0.195,1.414-0.585c0.781-0.781,0.781-2.048,0-2.829L53.328,49.793l12.728-12.728  c0.781-0.781,0.781-2.048,0-2.829c-0.78-0.78-2.048-0.78-2.828,0L50.5,46.965L37.772,34.236c-0.78-0.78-2.048-0.78-2.828,0  c-0.781,0.781-0.781,2.048,0,2.829l12.728,12.728L34.237,63.228c-0.781,0.781-0.781,2.048,0,2.829  C34.627,66.447,35.139,66.642,35.651,66.642z"/><path fill="#000000" d="M8,50c0,22.767,19.234,42,42,42s42-19.233,42-42S72.766,8,50,8S8,27.233,8,50z M50,12  c20.598,0,38,17.402,38,38S70.598,88,50,88S12,70.598,12,50S29.402,12,50,12z"/><text x="0" y="115" fill="#000000" font-size="5px" font-weight="bold" font-family="'Helvetica Neue', Helvetica, Arial-Unicode, Arial, Sans-serif">Created by Austin Condiff</text><text x="0" y="120" fill="#000000" font-size="5px" font-weight="bold" font-family="'Helvetica Neue', Helvetica, Arial-Unicode, Arial, Sans-serif">from the Noun Project</text></svg>