<svg xmlns="http://www.w3.org/2000/svg" xmlns:xlink="http://www.w3.org/1999/xlink" version="1.1" x="0px" y="0px" viewBox="0 0 100 125" enable-background="new 0 0 100 100" xml:space="preserve"><path fill="#000000" d="M16.459,73.027l10.633,10.633c0.941,0.941,2.192,1.459,3.522,1.459s2.582-0.519,3.522-1.459l16.277-16.277  L66.69,83.661c0.941,0.941,2.192,1.459,3.522,1.459s2.582-0.519,3.522-1.459l10.633-10.634c1.942-1.942,1.942-5.102,0-7.044  L68.091,49.706l15.57-15.569c1.941-1.942,1.941-5.103,0-7.044L73.027,16.458C72.086,15.518,70.835,15,69.505,15  c-1.331,0-2.582,0.518-3.522,1.459l-15.57,15.569l-15.57-15.569C33.903,15.518,32.652,15,31.321,15c-1.33,0-2.581,0.518-3.522,1.459  L17.166,27.092c-1.941,1.942-1.941,5.102,0,7.044l15.569,15.569L16.459,65.983C14.517,67.925,14.517,71.085,16.459,73.027z   M19.287,68.812l17.691-17.691c0.781-0.781,0.781-2.047,0-2.829L19.995,31.309c-0.383-0.383-0.383-1.006,0-1.388l10.633-10.633  c0.25-0.25,0.542-0.288,0.694-0.288s0.444,0.037,0.694,0.287L49,36.271c0.781,0.78,2.048,0.78,2.828,0l16.984-16.984  c0.25-0.25,0.542-0.287,0.694-0.287s0.444,0.037,0.694,0.287l10.633,10.634c0.382,0.382,0.382,1.005,0,1.387L63.849,48.292  c-0.781,0.781-0.781,2.047,0,2.829l17.69,17.691c0.383,0.382,0.383,1.005,0,1.387L70.906,80.833c-0.25,0.25-0.542,0.288-0.693,0.288  s-0.444-0.038-0.694-0.288L51.828,63.141c-0.375-0.375-0.884-0.585-1.414-0.585s-1.039,0.21-1.414,0.585L31.308,80.833  c-0.25,0.25-0.542,0.288-0.693,0.288s-0.444-0.038-0.694-0.288L19.288,70.199C18.905,69.816,18.905,69.194,19.287,68.812z"/><text x="0" y="115" fill="#000000" font-size="5px" font-weight="bold" font-family="'Helvetica Neue', Helvetica, Arial-Unicode, Arial, Sans-serif">Created by Austin Condiff</text><text x="0" y="120" fill="#000000" font-size="5px" font-weight="bold" font-family="'Helvetica Neue', Helvetica, Arial-Unicode, Arial, Sans-serif">from the Noun Project</text></svg>