<svg xmlns="http://www.w3.org/2000/svg" xmlns:xlink="http://www.w3.org/1999/xlink" version="1.1" x="0px" y="0px" viewBox="0 0 100 125" enable-background="new 0 0 100 100" xml:space="preserve"><path fill="#000000" d="M30,53h17v18c0,1.104,0.896,2,2,2s2-0.896,2-2V53h20c1.104,0,2-0.896,2-2s-0.896-2-2-2H51V30  c0-1.104-0.896-2-2-2s-2,0.896-2,2v19H30c-1.104,0-2,0.896-2,2S28.896,53,30,53z"/><path fill="#000000" d="M8,50c0,22.767,19.234,42,42,42s42-19.233,42-42S72.766,8,50,8S8,27.233,8,50z M50,12  c20.598,0,38,17.402,38,38S70.598,88,50,88S12,70.598,12,50S29.402,12,50,12z"/><text x="0" y="115" fill="#000000" font-size="5px" font-weight="bold" font-family="'Helvetica Neue', Helvetica, Arial-Unicode, Arial, Sans-serif">Created by Austin Condiff</text><text x="0" y="120" fill="#000000" font-size="5px" font-weight="bold" font-family="'Helvetica Neue', Helvetica, Arial-Unicode, Arial, Sans-serif">from the Noun Project</text></svg>