<?xml version="1.0" encoding="UTF-8" standalone="no"?>
<svg
   xmlns:dc="http://purl.org/dc/elements/1.1/"
   xmlns:cc="http://creativecommons.org/ns#"
   xmlns:rdf="http://www.w3.org/1999/02/22-rdf-syntax-ns#"
   xmlns:svg="http://www.w3.org/2000/svg"
   xmlns="http://www.w3.org/2000/svg"
   xmlns:sodipodi="http://sodipodi.sourceforge.net/DTD/sodipodi-0.dtd"
   xmlns:inkscape="http://www.inkscape.org/namespaces/inkscape"
   version="1.1"
   x="0px"
   y="0px"
   viewBox="78 78 100 125"
   enable-background="new 78 78 100 100"
   xml:space="preserve"
   id="svg2"
   inkscape:version="0.48.4 r9939"
   width="100%"
   height="100%"
   sodipodi:docname="profile_np.svg"><metadata
     id="metadata16"><rdf:RDF><cc:Work
         rdf:about=""><dc:format>image/svg+xml</dc:format><dc:type
           rdf:resource="http://purl.org/dc/dcmitype/StillImage" /><dc:title></dc:title></cc:Work></rdf:RDF></metadata><defs
     id="defs14" /><sodipodi:namedview
     pagecolor="#ffffff"
     bordercolor="#666666"
     borderopacity="1"
     objecttolerance="10"
     gridtolerance="10"
     guidetolerance="10"
     inkscape:pageopacity="0"
     inkscape:pageshadow="2"
     inkscape:window-width="771"
     inkscape:window-height="480"
     id="namedview12"
     showgrid="false"
     inkscape:zoom="1.888"
     inkscape:cx="50"
     inkscape:cy="62.5"
     inkscape:window-x="0"
     inkscape:window-y="34"
     inkscape:window-maximized="0"
     inkscape:current-layer="svg2" /><g
     id="g4"
     style="fill:#1b1b1b;fill-opacity:1"
     inkscape:export-filename="/home/juan/Desktop/unstuckme/art/PNG/ic_profile.png"
     inkscape:export-xdpi="133.83989"
     inkscape:export-ydpi="133.83989"><path
       d="M128.851,171.035H90.657v-6.024h38.193c28.655,0,31.969-5.251,31.969-9.2c0-5.469-11.285-14.089-21.74-18.938l-0.134-0.066   c-2.838-1.492-4.53-3.842-4.644-6.449c-0.113-2.607,1.369-5.096,4.066-6.828c0.077-0.051,8.555-5.663,8.555-14.069   c0-10.186-8.288-18.474-18.474-18.474s-18.474,8.287-18.474,18.474c0,8.476,8.47,14.014,8.555,14.069   c3.168,2.035,4.794,4.619,4.577,7.277c-0.146,1.784-1.19,4.286-5.33,6.086c-8.41,3.855-20.895,13.88-20.895,25.747h-6.024   c0-13.782,12.669-25.854,24.441-31.238l0.058-0.026c1.151-0.498,1.58-0.919,1.715-1.085c-0.122-0.272-0.59-0.918-1.796-1.693   c-0.463-0.297-11.324-7.408-11.324-19.138c0-13.508,10.989-24.498,24.498-24.498s24.498,10.989,24.498,24.498   c0,11.73-10.862,18.841-11.324,19.138c-0.914,0.587-1.316,1.188-1.303,1.498c0.013,0.304,0.448,0.851,1.371,1.349   c1.811,0.849,25.152,12.035,25.152,24.367c0,5.59-3.369,9.641-10.012,12.041C150.902,169.994,141.749,171.035,128.851,171.035z"
       id="path6"
       style="fill:#1b1b1b;fill-opacity:1" /></g><text
     x="78"
     y="193"
     fill="#000000"
     font-size="5px"
     font-weight="bold"
     font-family="'Helvetica Neue', Helvetica, Arial-Unicode, Arial, Sans-serif"
     id="text8">Created by Alejandro Cordara</text>
<text
     x="78"
     y="198"
     fill="#000000"
     font-size="5px"
     font-weight="bold"
     font-family="'Helvetica Neue', Helvetica, Arial-Unicode, Arial, Sans-serif"
     id="text10">from the Noun Project</text>
</svg>