<?xml version="1.0" encoding="UTF-8" standalone="no"?>
<svg
   xmlns:dc="http://purl.org/dc/elements/1.1/"
   xmlns:cc="http://creativecommons.org/ns#"
   xmlns:rdf="http://www.w3.org/1999/02/22-rdf-syntax-ns#"
   xmlns:svg="http://www.w3.org/2000/svg"
   xmlns="http://www.w3.org/2000/svg"
   xmlns:sodipodi="http://sodipodi.sourceforge.net/DTD/sodipodi-0.dtd"
   xmlns:inkscape="http://www.inkscape.org/namespaces/inkscape"
   version="1.1"
   x="0px"
   y="0px"
   viewBox="0 0 100 125"
   enable-background="new 0 0 100 100"
   xml:space="preserve"
   id="svg2"
   inkscape:version="0.48.4 r9939"
   width="100%"
   height="100%"
   sodipodi:docname="question_np.svg"><metadata
     id="metadata18"><rdf:RDF><cc:Work
         rdf:about=""><dc:format>image/svg+xml</dc:format><dc:type
           rdf:resource="http://purl.org/dc/dcmitype/StillImage" /><dc:title></dc:title></cc:Work></rdf:RDF></metadata><defs
     id="defs16" /><sodipodi:namedview
     pagecolor="#ffffff"
     bordercolor="#666666"
     borderopacity="1"
     objecttolerance="10"
     gridtolerance="10"
     guidetolerance="10"
     inkscape:pageopacity="0"
     inkscape:pageshadow="2"
     inkscape:window-width="771"
     inkscape:window-height="480"
     id="namedview14"
     showgrid="false"
     inkscape:zoom="1.888"
     inkscape:cx="50"
     inkscape:cy="62.5"
     inkscape:window-x="0"
     inkscape:window-y="24"
     inkscape:window-maximized="0"
     inkscape:current-layer="svg2" /><path
     fill="#000000"
     d="M50,67c-1.104,0-2,0.896-2,2v4c0,1.104,0.896,2,2,2s2-0.896,2-2v-4C52,67.896,51.104,67,50,67z"
     id="path4" /><path
     fill="#000000"
     d="M40.837,34.865c0.171-0.183,0.351-0.383,0.542-0.597c1.709-1.907,4.051-4.518,9.146-4.518  c5.659,0,9.162,3.698,9.162,7.125c0,3.433-1.671,4.969-5.452,8.117l-0.266,0.222C49.76,48.722,48,51.413,48,59c0,1.104,0.896,2,2,2  s2-0.896,2-2c0-6.37,1.174-7.917,4.53-10.714l0.265-0.221c3.698-3.079,6.892-5.738,6.892-11.19c0-5.351-5.032-11.125-13.162-11.125  c-6.881,0-10.292,3.804-12.124,5.847c-0.173,0.193-0.335,0.374-0.488,0.539c-0.754,0.808-0.71,2.073,0.097,2.827  C38.818,35.716,40.084,35.672,40.837,34.865z"
     id="path6" /><path
     fill="#000000"
     d="M50,92c22.766,0,42-19.233,42-42S72.766,8,50,8S8,27.233,8,50S27.234,92,50,92z M50,12  c20.598,0,38,17.402,38,38S70.598,88,50,88S12,70.598,12,50S29.402,12,50,12z"
     id="path8"
     style="fill:#1b1b1b;fill-opacity:1"
     inkscape:export-filename="/home/juan/Desktop/unstuckme/art/PNG/ic_question.png"
     inkscape:export-xdpi="137.14285"
     inkscape:export-ydpi="137.14285" /><text
     x="0"
     y="115"
     fill="#000000"
     font-size="5px"
     font-weight="bold"
     font-family="'Helvetica Neue', Helvetica, Arial-Unicode, Arial, Sans-serif"
     id="text10">Created by Austin Condiff</text>
<text
     x="0"
     y="120"
     fill="#000000"
     font-size="5px"
     font-weight="bold"
     font-family="'Helvetica Neue', Helvetica, Arial-Unicode, Arial, Sans-serif"
     id="text12">from the Noun Project</text>
</svg>