<svg xmlns="http://www.w3.org/2000/svg" xmlns:xlink="http://www.w3.org/1999/xlink" version="1.1" x="0px" y="0px" viewBox="0 0 100 125" enable-background="new 0 0 100 100" xml:space="preserve"><path fill="#000000" d="M22,38.974c-6.08,0-11.026,4.946-11.026,11.026S15.92,61.026,22,61.026c2.899,0,5.533-1.134,7.503-2.97  L62.618,75.26c-0.41,1.153-0.645,2.388-0.645,3.679c0,6.08,4.946,11.026,11.026,11.026s11.026-4.946,11.026-11.026  c0-6.08-4.946-11.026-11.026-11.026c-3.354,0-6.357,1.51-8.381,3.879L31.911,54.8c0.707-1.453,1.115-3.078,1.115-4.8  c0-1.024-0.151-2.013-0.414-2.955l32.003-18.809C66.64,30.609,69.645,32.12,73,32.12c6.08,0,11.026-4.946,11.026-11.026  c0-6.08-4.946-11.026-11.026-11.026s-11.026,4.946-11.026,11.026c0,1.291,0.234,2.525,0.644,3.678L30.845,43.444  C28.834,40.738,25.623,38.974,22,38.974z M73,71.913c3.875,0,7.026,3.152,7.026,7.026c0,3.875-3.152,7.026-7.026,7.026  s-7.026-3.152-7.026-7.026C65.974,75.064,69.125,71.913,73,71.913z M73,14.068c3.875,0,7.026,3.152,7.026,7.026  c0,3.875-3.152,7.026-7.026,7.026s-7.026-3.152-7.026-7.026C65.974,17.22,69.125,14.068,73,14.068z M22,57.026  c-3.875,0-7.026-3.152-7.026-7.026s3.152-7.026,7.026-7.026s7.026,3.152,7.026,7.026S25.875,57.026,22,57.026z"/><text x="0" y="115" fill="#000000" font-size="5px" font-weight="bold" font-family="'Helvetica Neue', Helvetica, Arial-Unicode, Arial, Sans-serif">Created by Austin Condiff</text><text x="0" y="120" fill="#000000" font-size="5px" font-weight="bold" font-family="'Helvetica Neue', Helvetica, Arial-Unicode, Arial, Sans-serif">from the Noun Project</text></svg>