<?xml version="1.0" encoding="UTF-8" standalone="no"?>
<svg
   xmlns:dc="http://purl.org/dc/elements/1.1/"
   xmlns:cc="http://creativecommons.org/ns#"
   xmlns:rdf="http://www.w3.org/1999/02/22-rdf-syntax-ns#"
   xmlns:svg="http://www.w3.org/2000/svg"
   xmlns="http://www.w3.org/2000/svg"
   xmlns:sodipodi="http://sodipodi.sourceforge.net/DTD/sodipodi-0.dtd"
   xmlns:inkscape="http://www.inkscape.org/namespaces/inkscape"
   version="1.1"
   x="0px"
   y="0px"
   viewBox="0 0 100 125"
   enable-background="new 0 0 100 100"
   xml:space="preserve"
   id="svg2"
   inkscape:version="0.48.4 r9939"
   width="100%"
   height="100%"
   sodipodi:docname="spinner.svg"><metadata
     id="metadata14"><rdf:RDF><cc:Work
         rdf:about=""><dc:format>image/svg+xml</dc:format><dc:type
           rdf:resource="http://purl.org/dc/dcmitype/StillImage" /><dc:title></dc:title></cc:Work></rdf:RDF></metadata><defs
     id="defs12" /><sodipodi:namedview
     pagecolor="#ffffff"
     bordercolor="#666666"
     borderopacity="1"
     objecttolerance="10"
     gridtolerance="10"
     guidetolerance="10"
     inkscape:pageopacity="0"
     inkscape:pageshadow="2"
     inkscape:window-width="771"
     inkscape:window-height="480"
     id="namedview10"
     showgrid="false"
     inkscape:zoom="1.888"
     inkscape:cx="50"
     inkscape:cy="62.5"
     inkscape:window-x="10"
     inkscape:window-y="24"
     inkscape:window-maximized="0"
     inkscape:current-layer="svg2" /><path
     d="M94.909,65.124c-1.816-3.593-23.373-28.239-26.828-32.179L99.544,1.177l-2.622,0.166C94.07,1.522,68.955,3.154,65.125,5.09  l-0.008,0.005c-3.616,1.84-28.238,23.375-32.173,26.824L1.177,0.456l0.166,2.623C1.522,5.93,3.155,31.045,5.09,34.875l0.007,0.009  c1.844,3.62,23.375,28.237,26.823,32.171L0.456,98.822l2.622-0.165c4.495-0.283,8.99-0.624,13.477-1.027  c5.498-0.494,11.204-0.823,16.579-2.148c3.208-0.79,5.839-3.502,8.333-5.534c4.745-3.867,9.398-7.847,14.041-11.837  c3.866-3.324,7.715-6.669,11.55-10.029l31.766,31.463l-0.165-2.622C98.478,94.07,96.846,68.954,94.909,65.124  C93.093,61.531,96.846,68.954,94.909,65.124z M86.8,57.849c-8.173-5.789-18.414-6.873-28.157-5.885  c0.909-4.021-1.133-8.236-4.876-9.991c3.54-3.313,7.791-6.901,12.73-7.801C71.231,39.566,80.52,50.265,86.8,57.849  C86.776,57.832,80.52,50.265,86.8,57.849z M58.247,16.186c1.8-2.898,4.104-5.5,6.476-7.941c0.444-0.5,0.946-0.963,1.428-1.427  c2.769-1.209,17.469-2.564,28.267-3.305L66.098,32.104l0.09,0.089c-1.667,0.288-6.35,1.564-12.405,7.042  C53.199,31.496,54.022,22.903,58.247,16.186C58.375,15.979,58.188,16.28,58.247,16.186z M57.847,13.202  c-5.906,7.998-6.854,18.553-5.884,28.156c-2.682-0.606-5.52,0.071-7.636,1.833l-9.958-9.861  C39.82,28.549,50.351,19.411,57.847,13.202C57.823,13.234,50.351,19.411,57.847,13.202z M12.495,39.075  c-1.477-1.206-2.898-2.481-4.264-3.811c-0.004-0.003-0.008-0.007-0.011-0.01c-0.71-0.69-1.203-1.197-1.404-1.406  C5.608,31.078,4.253,16.38,3.512,5.583l28.726,28.45l3.197,3.166l7.502,7.431c-0.311,0.408-0.583,0.848-0.822,1.311  C31.629,47.133,20.906,45.921,12.495,39.075C12.344,38.952,12.629,39.184,12.495,39.075z M13.205,42.155  c6.288,4.662,14.204,6.147,21.883,6.234c2.094,0,4.187-0.139,6.269-0.349c-0.603,2.683,0.072,5.518,1.834,7.635l-9.86,9.955  C28.55,60.18,19.413,49.651,13.205,42.155C13.233,42.176,19.413,49.651,13.205,42.155z M41.866,83.637  c-2.154,3.527-5.046,6.686-8.017,9.545c-2.764,1.21-17.467,2.565-28.267,3.307l28.452-28.727l3.169-3.199l7.427-7.499  c0.409,0.312,0.85,0.584,1.312,0.822c0.015,0.125,0.029,0.25,0.043,0.375c0.001,0.002,0.001,0.004,0.001,0.006  C46.915,66.702,46.465,76.228,41.866,83.637C41.699,83.91,41.884,83.608,41.866,83.637z M42.155,86.796  c5.835-8.104,6.868-18.461,5.884-28.153c2.679,0.61,5.523-0.075,7.635-1.835l9.957,9.862C60.181,71.45,49.652,80.587,42.155,86.796  C42.173,86.771,49.652,80.587,42.155,86.796z M67.766,65.969l-3.196-3.165l-7.506-7.435c0.312-0.408,0.584-0.85,0.822-1.313  c0.124-0.015,0.248-0.028,0.372-0.042c0.001,0,0.003,0,0.004,0c6.406-0.706,13.087-0.562,19.276,1.396  c5.575,1.764,10.08,5.293,14.22,9.315c0.008,0.007,0.017,0.016,0.024,0.022c0.473,0.46,0.947,0.922,1.399,1.402  c1.21,2.768,2.565,17.47,3.306,28.268L67.766,65.969L67.766,65.969z"
     id="path4"
     style="fill:#1b1b1b;fill-opacity:1"
     inkscape:export-filename="/home/juan/Desktop/unstuckme/art/PNG/loader_spinner.png"
     inkscape:export-xdpi="232.51825"
     inkscape:export-ydpi="232.51825" /><text
     x="0"
     y="115"
     fill="#000000"
     font-size="5px"
     font-weight="bold"
     font-family="'Helvetica Neue', Helvetica, Arial-Unicode, Arial, Sans-serif"
     id="text6">Created by Charlotte Vogel</text>
<text
     x="0"
     y="120"
     fill="#000000"
     font-size="5px"
     font-weight="bold"
     font-family="'Helvetica Neue', Helvetica, Arial-Unicode, Arial, Sans-serif"
     id="text8">from the Noun Project</text>
</svg>