<svg xmlns="http://www.w3.org/2000/svg" xmlns:xlink="http://www.w3.org/1999/xlink" version="1.1" x="0px" y="0px" viewBox="0 0 100 125" enable-background="new 0 0 100 100" xml:space="preserve"><circle fill="#000000" cx="35.5" cy="45.86" r="3.506"/><path fill="#000000" d="M50,92c22.766,0,42-19.233,42-42S72.766,8,50,8S8,27.233,8,50S27.234,92,50,92z M50,12  c20.598,0,38,17.402,38,38S70.598,88,50,88S12,70.598,12,50S29.402,12,50,12z"/><path fill="#000000" d="M50,75.999c8.441,0,16.131-4.213,20.067-10.994c0.554-0.956,0.229-2.18-0.726-2.734  c-0.955-0.554-2.179-0.229-2.734,0.726C63.384,68.55,57.021,71.999,50,71.999s-13.385-3.449-16.609-9.002  c-0.555-0.956-1.779-1.281-2.733-0.726c-0.956,0.555-1.28,1.778-0.726,2.733C33.868,71.786,41.558,75.999,50,75.999z"/><path fill="#000000" d="M58,47h10c1.104,0,2-0.896,2-2s-0.896-2-2-2H58c-1.104,0-2,0.896-2,2S56.896,47,58,47z"/><text x="0" y="115" fill="#000000" font-size="5px" font-weight="bold" font-family="'Helvetica Neue', Helvetica, Arial-Unicode, Arial, Sans-serif">Created by Austin Condiff</text><text x="0" y="120" fill="#000000" font-size="5px" font-weight="bold" font-family="'Helvetica Neue', Helvetica, Arial-Unicode, Arial, Sans-serif">from the Noun Project</text></svg>