<svg xmlns="http://www.w3.org/2000/svg" xmlns:xlink="http://www.w3.org/1999/xlink" version="1.1" x="0px" y="0px" viewBox="0 0 100 125" enable-background="new 0 0 100 100" xml:space="preserve"><path fill="#000000" d="M83.778,17.87c-0.946-0.946-2.204-1.467-3.541-1.467s-2.595,0.521-3.541,1.467L39.932,54.634L25.094,39.796  c-0.946-0.946-2.204-1.467-3.541-1.467s-2.595,0.521-3.541,1.467l-9.889,9.889c-1.952,1.953-1.952,5.129,0,7.082L36.647,85.29  c1.249,1.248,2.492,1.511,3.315,1.511c0,0,0,0,0,0c0.801,0,2.002-0.248,3.18-1.425l50.53-50.53c1.952-1.952,1.952-5.129,0-7.082  L83.778,17.87z M90.844,32.018L40.315,82.547c-0.19,0.19-0.319,0.248-0.353,0.254c-0.017-0.003-0.187-0.039-0.487-0.339  L10.952,53.938c-0.393-0.393-0.393-1.032,0-1.425l9.889-9.889c0.256-0.256,0.556-0.295,0.712-0.295s0.456,0.039,0.713,0.295  l16.252,16.252c0.78,0.781,2.048,0.781,2.828,0l38.179-38.179c0.256-0.256,0.556-0.295,0.712-0.295s0.456,0.039,0.713,0.295  l9.894,9.894C91.237,30.985,91.237,31.625,90.844,32.018z"/><text x="0" y="115" fill="#000000" font-size="5px" font-weight="bold" font-family="'Helvetica Neue', Helvetica, Arial-Unicode, Arial, Sans-serif">Created by Austin Condiff</text><text x="0" y="120" fill="#000000" font-size="5px" font-weight="bold" font-family="'Helvetica Neue', Helvetica, Arial-Unicode, Arial, Sans-serif">from the Noun Project</text></svg>